# AST/ASF file generated using VICON BodyLanguage
# -----------------------------------------------
:version 1.10
:name VICON
:units
  mass 1.0
  length 0.45
  angle deg
:documentation
   .ast/.asf automatically generated from VICON data using
   VICON BodyBuilder and BodyLanguage model FoxedUp or BRILLIANT.MOD
:root
   order TX TY TZ RX RY RZ
   axis XYZ
   position 0 0 0  
   orientation 0 0 0 
:bonedata
  begin
     id 1 
     name lhipjoint
     direction 0.537252 -0.787203 0.302774 
     length 2.29576 
     axis 0 0 0  XYZ
  end
  begin
     id 2 
     name lfemur
     direction 0.34202 -0.939693 0  
     length 7.31114  
     axis 0 0 20  XYZ
    dof rx ry rz
    limits (-160.0 20.0)
           (-70.0 70.0)
           (-60.0 70.0)
  end
  begin
     id 3 
     name ltibia
     direction 0.34202 -0.939693 0   
     length 8.36008   
     axis 0 0 20   XYZ
    dof rx
    limits (-10.0 170.0)
  end
  begin
     id 4 
     name lfoot
     direction 0.0969116 -0.266263 0.959016   
     length 2.16704   
     axis -90 7.62852e-016 20   XYZ
    dof rx rz
    limits (-45.0 90.0)
           (-70.0 20.0)
  end
  begin
     id 5 
     name ltoes
     direction 1.53563e-011 -4.21779e-011 1   
     length 1.08338   
     axis -90 7.62852e-016 20   XYZ
    dof rx
    limits (-90.0 20.0)
  end
  begin
     id 6 
     name rhipjoint
     direction -0.588228 -0.754791 0.290308   
     length 2.39434  
     axis 0 0 0  XYZ 
  end
  begin
     id 7 
     name rfemur
     direction -0.34202 -0.939693 0   
     length 7.45207   
     axis 0 0 -20   XYZ
    dof rx ry rz
    limits (-160.0 20.0)
           (-70.0 70.0)
           (-70.0 60.0)
  end
  begin
     id 8 
     name rtibia
     direction -0.34202 -0.939693 0   
     length 8.03565   
     axis 0 0 -20   XYZ
    dof rx
    limits (-10.0 170.0)
 end
 begin
     id 9 
     name rfoot
     direction -0.107009 -0.294004 0.949795   
     length 2.11509  
     axis -90 -7.62852e-016 -20   XYZ
    dof rx rz
    limits (-45.0 90.0)
           (-20.0 70.0)
  end
  begin
     id 10 
     name rtoes
     direction -1.53533e-011 -4.22004e-011 1   
     length 1.05493   
     axis -90 -7.62852e-016 -20   XYZ
    dof rx
    limits (-90.0 20.0)
  end
  begin
     id 11 
     name lowerback
     direction -0.0115208 0.997969 -0.0626515   
     length 2.03153   
     axis 0 0 0   XYZ
    dof rx ry rz
    limits (-20.0 45.0)
           (-30.0 30.0)
           (-30.0 30.0)
  end
  begin
     id 12 
     name upperback
     direction -0.00423475 0.999974 -0.00583614   
     length 2.03619   
     axis 0 0 0   XYZ
    dof rx ry rz
    limits (-20.0 45.0)
           (-30.0 30.0)
           (-30.0 30.0)
  end
  begin
     id 13 
     name thorax
     direction 0.00289429 0.999728 0.0231573   
     length 2.03921   
     axis 0 0 0   XYZ
    dof rx ry rz
    limits (-20.0 45.0)
           (-30.0 30.0)
           (-30.0 30.0)
  end
  begin
     id 14 
     name lowerneck
     direction 0.0188995 0.987777 0.154721   
     length 1.78836   
     axis 0 0 0   XYZ
    dof rx ry rz
    limits (-20.0 45.0)
           (-30.0 30.0)
           (-30.0 30.0)
  end
  begin
     id 15 
     name upperneck
     direction -0.00612612 0.992995 -0.118   
     length 1.81789   
     axis 0 0 0   XYZ
    dof rx ry rz
    limits (-20.0 45.0)
           (-30.0 30.0)
           (-30.0 30.0)
  end
  begin
     id 16
     name head
     direction -0.00420226 0.998397 -0.0564482  
     length 1.82234  
     axis 0 0 0   XYZ
    dof rx ry rz
    limits (-20.0 45.0)
           (-30.0 30.0)
           (-30.0 30.0)
  end
  begin
     id 17 
     name lclavicle
     direction 0.916488 0.396539 0.0529676  
     length 3.51732  
     axis 0 0 0   XYZ
    dof ry rz
    limits (-20.0 10.0)
           (0.0 20.0)
  end
  begin
     id 18 
     name lhumerus
     direction 1 -4.4896e-011 8.36962e-028   
     length 5.45077   
     axis 180 -30 -90   XYZ
    dof rx ry rz
    limits (-60.0 90.0)
           (-90.0 90.0)
           (-90.0 90.0)
  end
  begin
     id 19
     name lradius
     direction 1 -4.48962e-011 3.01407e-027   
     length 3.05488   
     axis 180 -30 -90   XYZ
    dof rx
    limits (-10.0 170.0)
  end
  begin
     id 20
     name lwrist
     direction 1 -4.49002e-011 4.72961e-027   
     length 1.52744   
     axis -2.72261e-015 90 90   XYZ
    dof ry
    limits (-180.0 0.0)
 end
  begin
     id 21 
     name lhand
     direction 1 -4.4899e-011 9.45681e-027   
     length 0.638818   
     axis -6.0311e-015 90 90   XYZ
    dof rx rz
    limits (-90.0 90.0)
           (-45.0 45.0)
  end
  begin
     id 22 
     name lfingers
     direction 1 -4.48871e-011 1.88632e-026   
     length 0.515032   
     axis -1.20625e-014 90 90   XYZ
    dof rx
    limits (0.0 90.0)
  end
  begin
     id 23
     name lthumb
     direction 0.707107 -6.34964e-011 0.707107   
     length 0.739485   
     axis -90 45 6.32835e-014   XYZ
    dof rx rz
    limits (-45.0 45.0)
           (-45.0 45.0)
  end
  begin
     id 24 
     name rclavicle
     direction -0.949427 0.303202 0.0815894   
     length 3.76167  
     axis 0 0 0   XYZ 
    dof ry rz
    limits (-10.0 20.0)
           (-20.0 0.0)
  end
  begin
     id 25 
     name rhumerus
     direction -1 -4.48971e-011 -6.43969e-018  
     length 4.88702   
     axis 180 30 90   XYZ
    dof rx ry rz
    limits (-90.0 60.0)
           (-90.0 90.0)
           (-90.0 90.0)
  end
  begin
     id 26 
     name rradius
     direction -1 -4.48987e-011 5.46662e-027   
     length 3.22603   
     axis 180 30 90   XYZ
    dof rx
    limits (-10.0 170.0)
  end
  begin
     id 27 
     name rwrist
     direction -1 -4.48956e-011 4.72476e-027   
     length 1.61302   
     axis -2.72261e-015 -90 -90   XYZ
    dof ry
    limits (-180.0 0.0)
  end
  begin
     id 28
     name rhand
     direction -1 -4.4889e-011 9.43571e-027   
     length 0.716293   
     axis -6.0311e-015 -90 -90   XYZ
    dof rx rz
    limits (-90.0 90.0)
           (-45.0 45.0)
  end
  begin
     id 29
     name rfingers
     direction -1 -4.48887e-011 1.88701e-026   
     length 0.577494   
     axis -1.20625e-014 -90 -90   XYZ
    dof rx
    limits (0.0 90.0)
  end
  begin
     id 30
     name rthumb
     direction -0.707107 -6.34825e-011 0.707107   
     length 0.829169   
     axis -90 -45 -6.32835e-014   XYZ
    dof rx rz
    limits (-45.0 45.0)
           (-45.0 45.0)
  end
:hierarchy
  begin
    root lhipjoint rhipjoint lowerback
    lhipjoint lfemur
    lfemur ltibia
    ltibia lfoot
    lfoot ltoes
    rhipjoint rfemur
    rfemur rtibia
    rtibia rfoot
    rfoot rtoes
    lowerback upperback
    upperback thorax
    thorax lowerneck lclavicle rclavicle
    lowerneck upperneck
    upperneck head
    lclavicle lhumerus
    lhumerus lradius
    lradius lwrist
    lwrist lhand lthumb
    lhand lfingers
    rclavicle rhumerus
    rhumerus rradius
    rradius rwrist
    rwrist rhand rthumb
    rhand rfingers
  end

#!OML:ASF F:\VICON\USERDATA\INSTALL\rory3\rory3.ASF
:FULLY-SPECIFIED
:DEGREES
2098
root 1.52544 18.5508 0.752798 45.6087 84.993 33.4813
lowerback -8.23623 -0.239492 0.643885
upperback -2.09196 -0.3354 0.492944
thorax 2.45177 -0.142621 0.113369
lowerneck -17.0233 -4.10392 -0.442937
upperneck 22.4871 -4.63698 -3.09585
head 9.88849 -2.46799 -1.61573
rclavicle -9.93923e-017 7.15625e-015
rhumerus -34.9635 -7.64096 -80.7726
rradius 43.4016
rwrist -164.68
rhand -22.6257 -3.39026
rfingers 7.12502
rthumb 3.80453 -33.336
lclavicle -9.93923e-017 7.15625e-015
lhumerus -48.2986 -26.934 81.3071
lradius 67.7276
lwrist 172.6
lhand -39.0471 -23.4246
lfingers 7.12502
lthumb -12.0491 6.20851
rfemur -12.318 -4.31761 14.9272
rtibia 7.40177
rfoot -6.10072 9.19148
rtoes -7.24891
lfemur -12.9573 8.91343 -20.8523
ltibia 13.2174
lfoot -12.0504 0.718971
ltoes -27.9294
2099
root 1.53192 18.55 0.764834 45.7114 85.321 33.6503
lowerback -8.3157 -0.22584 0.692614
upperback -2.1884 -0.316518 0.429648
thorax 2.3956 -0.131974 0.0225545
lowerneck -17.1293 -3.8521 -0.222204
upperneck 22.5222 -4.31144 -3.22811
head 9.91708 -2.31425 -1.65883
rclavicle 4.37326e-015 -3.18055e-015
rhumerus -35.023 -6.76004 -81.3359
rradius 43.611
rwrist -163.974
rhand -23.4084 -3.10821
rfingers 7.12502
rthumb 3.04868 -33.0662
lclavicle 4.37326e-015 -3.18055e-015
lhumerus -46.9934 -25.4782 80.8709
lradius 65.0981
lwrist 172.459
lhand -38.2478 -23.3987
lfingers 7.12502
lthumb -11.2783 6.27805
rfemur -12.0914 -4.53573 15.2154
rtibia 7.25045
rfoot -6.12397 9.13721
rtoes -7.52242
lfemur -12.9443 8.92344 -20.5824
ltibia 13.3258
lfoot -12.1121 0.486223
ltoes -28.1507
2100
root 1.53804 18.5492 0.77637 46.221 85.6202 34.2269
lowerback -8.38712 -0.222127 0.707848
upperback -2.28569 -0.307822 0.360534
thorax 2.33423 -0.12661 -0.0564417
lowerneck -17.2119 -3.63391 -0.0592919
upperneck 22.5804 -4.03196 -3.29722
head 9.95292 -2.1789 -1.67627
rclavicle -2.83268e-015 -8.34896e-015
rhumerus -35.0369 -5.77399 -81.9208
rradius 43.6135
rwrist -163.671
rhand -23.5373 -3.03222
rfingers 7.12502
rthumb 2.92422 -32.9919
lclavicle -2.83268e-015 -8.34896e-015
lhumerus -45.6994 -23.7856 80.3102
lradius 62.4798
lwrist 172.37
lhand -37.6322 -23.5161
lfingers 7.12502
lthumb -10.6845 6.1922
rfemur -11.8647 -4.757 15.4572
rtibia 7.10331
rfoot -6.14543 9.10316
rtoes -7.53951
lfemur -12.9244 8.82416 -20.3372
ltibia 13.4158
lfoot -12.1049 0.281776
ltoes -27.8261
2101
root 1.54474 18.5473 0.788114 47.35 85.9397 35.4433
lowerback -8.35382 -0.245654 0.708178
upperback -2.43705 -0.331239 0.268877
thorax 2.15878 -0.137445 -0.153022
lowerneck -17.2344 -3.40323 0.116965
upperneck 22.6709 -3.75572 -3.29483
head 9.99093 -2.03451 -1.67036
rclavicle 1.0312e-014 -7.95139e-016
rhumerus -35.1786 -4.81689 -82.4871
rradius 43.375
rwrist -163.676
rhand -23.0755 -3.8006
rfingers 7.12502
rthumb 3.37019 -33.7537
lclavicle 1.0312e-014 -7.95139e-016
lhumerus -44.5959 -21.8933 79.5751
lradius 59.9905
lwrist 172.298
lhand -37.2454 -23.6065
lfingers 7.12502
lthumb -10.3114 6.12069
rfemur -11.5494 -5.02341 15.6789
rtibia 6.85309
rfoot -6.09236 9.09884
rtoes -7.51369
lfemur -12.9011 8.74193 -20.1172
ltibia 13.5058
lfoot -12.1121 0.0874719
ltoes -27.7466
2102
root 1.55089 18.5471 0.797802 48.575 86.2641 36.6878
lowerback -8.37445 -0.238319 0.74466
upperback -2.61246 -0.315723 0.171635
thorax 1.98841 -0.12848 -0.271845
lowerneck -17.2718 -3.22452 0.246787
upperneck 22.7927 -3.55862 -3.21269
head 10.0445 -1.9209 -1.64021
rclavicle 9.31803e-015 -9.54166e-015
rhumerus -35.3542 -3.84622 -83.0748
rradius 43.0774
rwrist -163.426
rhand -22.2386 -4.72111
rfingers 7.12502
rthumb 4.17841 -34.6599
lclavicle 9.31803e-015 -9.54166e-015
lhumerus -43.4812 -19.7735 78.7661
lradius 57.4803
lwrist 172.051
lhand -36.8342 -23.7338
lfingers 7.12502
lthumb -9.9147 6.01271
rfemur -11.3274 -5.29422 15.906
rtibia 6.60065
rfoot -6.0313 9.07755
rtoes -7.68458
lfemur -12.9248 8.615 -19.9013
ltibia 13.5687
lfoot -12.1356 -0.00586808
ltoes -27.9049
